#!OML:ASF F:\VICON\USERDATA\INSTALL\rory3\rory3.ASF
:FULLY-SPECIFIED
:DEGREES
509
root -4.21003 14.6323 -6.24615 12.6128 -13.0386 0.100947
lowerback 25.8644 0.199576 -0.667147
upperback 4.4927 0.296655 2.49074
thorax -9.39729 0.176141 3.06666
lowerneck -25.1222 0.0247537 -5.40518
upperneck 8.08342 1.50046 1.79135
head 6.38813 0.701469 1.62718
rclavicle -4.69132e-014 3.97569e-016
rhumerus -6.80559 6.46479 -75.8865
rradius 122.779
rwrist 7.95921
rhand -21.8713 21.6353
rfingers 7.12502
rthumb 4.53305 -8.29619
lclavicle -4.69132e-014 3.97569e-016
lhumerus -7.30925 6.83094 88.1519
lradius 130.069
lwrist 3.66153
lhand -17.6088 6.80569
lfingers 7.12502
lthumb 8.64786 36.6086
rfemur -61.0326 -6.65916 4.24991
rtibia 71.9581
rfoot -17.2241 16.2825
rtoes -15.1801
lfemur -31.5855 17.339 9.59494
ltibia 66.6563
lfoot -17.546 -2.06979
ltoes -43.3403
510
root -4.18255 14.6575 -6.24757 12.8242 -13.2087 0.0520187
lowerback 25.5423 0.296658 -0.749419
upperback 4.40939 0.391689 2.40833
thorax -9.33002 0.222469 2.98735
lowerneck -25.2071 0.0248994 -5.23701
upperneck 8.24106 1.45836 1.7501
head 6.45594 0.680772 1.58399
rclavicle -7.95139e-016 -1.35174e-014
rhumerus -6.72193 6.10147 -75.7335
rradius 122.751
rwrist 7.97441
rhand -21.9209 21.5496
rfingers 7.12502
rthumb 4.48517 -8.38287
lclavicle -7.95139e-016 -1.35174e-014
lhumerus -7.20195 6.67418 88.09
lradius 129.942
lwrist 3.70037
lhand -17.5018 7.24788
lfingers 7.12502
lthumb 8.75117 37.0465
rfemur -61.0747 -6.44212 4.17719
rtibia 71.3505
rfoot -16.9757 16.1761
rtoes -14.5263
lfemur -31.4597 17.1424 9.40561
ltibia 66.1359
lfoot -17.6294 -1.6102
ltoes -43.4178
511
root -4.15495 14.7063 -6.24333 13.0431 -13.3634 0.0641807
lowerback 25.1528 0.364489 -0.837158
upperback 4.30738 0.449684 2.33221
thorax -9.24591 0.251964 2.93063
lowerneck -25.1637 0.01278 -5.1953
upperneck 8.38451 1.41869 1.80801
head 6.49809 0.666453 1.59275
rclavicle 7.95139e-016 3.02153e-014
rhumerus -6.65974 5.84758 -75.6032
rradius 122.706
rwrist 7.8033
rhand -21.9323 21.5243
rfingers 7.12502
rthumb 4.47411 -8.40846
lclavicle 7.95139e-016 3.02153e-014
lhumerus -7.22241 6.59475 88.0598
lradius 129.784
lwrist 3.73514
lhand -17.2373 7.33429
lfingers 7.12502
lthumb 9.00634 37.122
rfemur -60.9666 -6.24188 4.03786
rtibia 70.7314
rfoot -16.874 16.1041
rtoes -14.3081
lfemur -31.2783 16.917 9.07875
ltibia 65.5616
lfoot -17.8816 -1.05486
ltoes -43.6312
512
root -4.12431 14.7498 -6.23655 13.126 -13.4906 0.0958507
lowerback 24.9569 0.402626 -0.92636
upperback 4.2468 0.47278 2.29356
thorax -9.21362 0.265537 2.93012
lowerneck -25.2875 -0.0275756 -5.27747
upperneck 8.59485 1.38155 1.92864
head 6.58612 0.65424 1.6439
rclavicle -9.14409e-015 -3.57812e-014
rhumerus -6.44408 5.74771 -75.4778
rradius 122.592
rwrist 7.55382
rhand -22.1343 21.534
rfingers 7.12502
rthumb 4.27908 -8.40272
lclavicle -9.14409e-015 -3.57812e-014
lhumerus -7.26045 6.64388 88.1042
lradius 129.628
lwrist 3.80949
lhand -17.0808 7.09549
lfingers 7.12502
lthumb 9.15738 36.8767
rfemur -60.7161 -6.08539 3.85249
rtibia 70.1783
rfoot -16.816 16.082
rtoes -14.3406
lfemur -30.9745 16.6152 8.78207
ltibia 65.0283
lfoot -18.1027 -0.547991
ltoes -43.5632
513
root -4.09385 14.7866 -6.23397 13.1644 -13.5614 0.000987548
lowerback 24.8814 0.410998 -0.912568
upperback 4.27393 0.488056 2.31225
thorax -9.14494 0.271336 2.93692
lowerneck -25.6249 -0.00725485 -5.28098
upperneck 8.84309 1.42907 1.93559
head 6.71727 0.674564 1.65738
rclavicle -1.43125e-014 -3.57812e-015
rhumerus -6.0105 5.71892 -75.381
rradius 122.409
rwrist 7.41686
rhand -22.4105 21.7053
rfingers 7.12502
rthumb 4.01241 -8.23671
lclavicle -1.43125e-014 -3.57812e-015
lhumerus -7.07581 6.73331 88.1795
lradius 129.486
lwrist 3.99233
lhand -16.9466 6.98151
lfingers 7.12502
lthumb 9.28688 36.757
rfemur -60.43 -5.88187 3.8036
rtibia 69.6158
rfoot -16.8619 15.9635
rtoes -14.6929
lfemur -30.6058 16.2892 8.6963
ltibia 64.5001
lfoot -18.2869 -0.177319
ltoes -43.4286
514
root -4.0674 14.8205 -6.2358 13.2425 -13.5189 -0.146433
lowerback 24.7668 0.389137 -0.820165
upperback 4.38626 0.481497 2.32109
thorax -8.95869 0.262089 2.89283
lowerneck -26.1229 0.0328002 -5.15614
upperneck 9.06803 1.4717 1.92236
head 6.86626 0.696038 1.6445
rclavicle 6.55989e-014 0
rhumerus -5.40047 5.62002 -75.3877
rradius 122.238
rwrist 7.53024
rhand -22.6459 21.7762
rfingers 7.12502
rthumb 3.78505 -8.16991
lclavicle 6.55989e-014 0
lhumerus -6.63731 6.75054 88.1096
lradius 129.297
lwrist 4.12021
lhand -17.1917 7.04029
lfingers 7.12502
lthumb 9.05034 36.8261
rfemur -60.1405 -5.69077 3.79705
rtibia 69.0844
rfoot -16.8561 15.8251
rtoes -14.617
lfemur -30.3905 15.93 8.71424
ltibia 64.0198
lfoot -18.3702 0.0239483
ltoes -43.414
515
root -4.04327 14.8491 -6.23882 13.2373 -13.4235 -0.21105
lowerback 24.785 0.368015 -0.806275
upperback 4.47039 0.456564 2.32846
thorax -8.87266 0.24801 2.9001
lowerneck -26.4152 0.0292751 -5.04695
upperneck 9.14451 1.44454 1.93158
head 6.93729 0.687523 1.62982
rclavicle 2.14687e-014 -9.14409e-015
rhumerus -4.88741 5.51278 -75.3464
rradius 122.149
rwrist 7.73918
rhand -22.7352 21.6622
rfingers 7.12502
rthumb 3.69885 -8.28547
lclavicle 2.14687e-014 -9.14409e-015
lhumerus -6.35097 6.73882 88.0059
lradius 129.107
lwrist 4.10255
lhand -17.6471 7.15601
lfingers 7.12502
lthumb 8.61086 36.9604
rfemur -59.7819 -5.61431 3.7207
rtibia 68.623
rfoot -16.875 15.7126
rtoes -14.6959
lfemur -30.2185 15.6131 8.67871
ltibia 63.6106
lfoot -18.4557 0.106541
ltoes -43.5945
516
root -4.01659 14.8721 -6.24559 13.1954 -13.2685 -0.192088
lowerback 24.9548 0.336607 -0.810401
upperback 4.40754 0.422424 2.37699
thorax -9.02952 0.23535 2.97016
lowerneck -26.2015 -0.0150332 -5.10375
upperneck 9.08343 1.40312 1.86722
head 6.88653 0.659368 1.60976
rclavicle -1.51076e-014 2.0276e-014
rhumerus -4.73931 5.45818 -75.1181
rradius 122.21
rwrist 7.95073
rhand -22.6034 21.4873
rfingers 7.12502
rthumb 3.82611 -8.45809
lclavicle -1.51076e-014 2.0276e-014
lhumerus -6.39163 6.74163 88.0701
lradius 128.987
lwrist 4.17134
lhand -17.6624 7.31722
lfingers 7.12502
lthumb 8.59612 37.1222
rfemur -59.4425 -5.62076 3.54962
rtibia 68.2275
rfoot -16.8483 15.6717
rtoes -14.6017
lfemur -30.14 15.3707 8.55783
ltibia 63.3102
lfoot -18.5676 0.112459
ltoes -43.7089
517
root -3.98792 14.8853 -6.25771 13.2621 -13.0078 -0.157774
lowerback 25.0712 0.272371 -0.732386
upperback 4.2597 0.370454 2.42871
thorax -9.25257 0.214157 3.00296
lowerneck -25.692 -0.0282907 -5.20675
upperneck 8.93233 1.40254 1.79498
head 6.75964 0.649422 1.59684
rclavicle -1.23246e-014 -1.98785e-015
rhumerus -4.7885 5.42185 -74.8671
rradius 122.321
rwrist 8.29892
rhand -22.6375 21.412
rfingers 7.12502
rthumb 3.79314 -8.53394
lclavicle -1.23246e-014 -1.98785e-015
lhumerus -6.6109 6.68176 88.0975
lradius 128.911
lwrist 4.23395
lhand -17.5304 7.49414
lfingers 7.12502
lthumb 8.72356 37.2939
rfemur -59.2678 -5.72735 3.36866
rtibia 67.8996
rfoot -16.7684 15.5467
rtoes -14.3531
lfemur -30.3526 15.2442 8.41148
ltibia 63.1669
lfoot -18.6612 -0.000533866
ltoes -43.7261
